<svg width="25" height="23" viewBox="0 0 25 23" fill="none" xmlns="http://www.w3.org/2000/svg">
<path d="M13.3982 0.393419C13.2563 0.272946 13.0814 0.20752 12.9014 0.20752C12.7214 0.20752 12.5466 0.272946 12.4046 0.393419L0.90863 10.1512L1.90303 11.5202L3.30863 10.3271L3.30863 21.1073C3.30948 21.569 3.47832 22.0115 3.77819 22.3379C4.07807 22.6643 4.48454 22.8481 4.90863 22.849L20.9086 22.849C21.3327 22.8481 21.7392 22.6643 22.0391 22.3379C22.3389 22.0115 22.5078 21.569 22.5086 21.1073L22.5086 10.335L23.9142 11.528L24.9086 10.1591L13.3982 0.393419ZM14.5086 21.1073L11.3086 21.1073V14.1406H14.5086V21.1073ZM16.1086 21.1073V14.1406C16.1082 13.6788 15.9395 13.2361 15.6395 12.9095C15.3396 12.583 14.9328 12.3994 14.5086 12.3989H11.3086C10.8844 12.3994 10.4777 12.583 10.1777 12.9095C9.87776 13.2361 9.70905 13.6788 9.70863 14.1406V21.1073H4.90863L4.90863 8.9695L12.9086 2.18562L20.9086 8.97821L20.9086 21.1073H16.1086Z" fill="black"/>
</svg>
