<svg width="32" height="32" viewBox="0 0 32 32" fill="none" xmlns="http://www.w3.org/2000/svg">
<path d="M16 30C12.3008 29.9554 8.76575 28.466 6.14985 25.8501C3.53395 23.2343 2.04463 19.6992 2 16C2.04463 12.3008 3.53395 8.76575 6.14985 6.14985C8.76575 3.53395 12.3008 2.04463 16 2C19.6992 2.04463 23.2343 3.53395 25.8501 6.14985C28.466 8.76575 29.9554 12.3008 30 16C29.9554 19.6992 28.466 23.2343 25.8501 25.8501C23.2343 28.466 19.6992 29.9554 16 30ZM24 15H17V8H15V15H8V17H15V24H17V17H24V15Z" fill="black"/>
</svg>
