<svg width="32" height="32" viewBox="0 0 32 32" fill="none" xmlns="http://www.w3.org/2000/svg">
<path fill-rule="evenodd" clip-rule="evenodd" d="M17.592 5.39275e-08C19.8937 0.000249272 22.1619 0.551861 24.2067 1.60866C26.2514 2.66545 28.0132 4.19668 29.3447 6.07416C30.6761 7.95164 31.5383 10.1207 31.8593 12.3999C32.1802 14.679 31.9504 17.0019 31.1892 19.174C30.428 21.3461 29.1575 23.3042 27.4841 24.8845C25.8107 26.4648 23.783 27.6213 21.5709 28.2571C19.3587 28.8928 17.0264 28.9895 14.7692 28.5388C12.512 28.0882 10.3957 27.1034 8.59724 25.667L2.71334 31.5506C2.41138 31.8422 2.00695 32.0036 1.58715 31.9999C1.16736 31.9963 0.765792 31.8279 0.468943 31.5311C0.172093 31.2342 0.00370959 30.8327 6.17037e-05 30.4129C-0.00358619 29.9932 0.157792 29.5887 0.449438 29.2868L6.33334 23.4032C4.63943 21.2833 3.57858 18.7281 3.27291 16.0319C2.96724 13.3356 3.42918 10.6079 4.60554 8.16261C5.78191 5.71732 7.62488 3.65389 9.92235 2.20983C12.2198 0.765764 14.8784 -0.000234668 17.592 5.39275e-08ZM27.1984 14.4089C27.1984 13.1474 26.9499 11.8983 26.4671 10.7328C25.9844 9.56739 25.2768 8.50844 24.3847 7.61645C23.4927 6.72446 22.4337 6.0169 21.2682 5.53416C20.1027 5.05141 18.8535 4.80295 17.592 4.80295C16.3305 4.80295 15.0813 5.05141 13.9158 5.53416C12.7503 6.0169 11.6913 6.72446 10.7993 7.61645C9.90724 8.50844 9.19964 9.56739 8.71688 10.7328C8.23411 11.8983 7.98564 13.1474 7.98564 14.4089C7.98564 16.9565 8.99773 19.3998 10.7993 21.2013C12.6008 23.0027 15.0442 24.0148 17.592 24.0148C20.1398 24.0148 22.5832 23.0027 24.3847 21.2013C26.1863 19.3998 27.1984 16.9565 27.1984 14.4089Z" fill="black"/>
</svg>
